<svg width="521" height="435" viewBox="0 0 521 435" fill="none" xmlns="http://www.w3.org/2000/svg">
<mask id="mask0_5075_7866" style="mask-type:alpha" maskUnits="userSpaceOnUse" x="206" y="0" width="245" height="210">
<rect x="206.254" width="244.158" height="209.967" fill="url(#paint0_linear_5075_7866)"/>
</mask>
<g mask="url(#mask0_5075_7866)">
<circle cx="323.074" cy="118.441" r="116.511" fill="#EABBEB" fill-opacity="0.5"/>
<circle cx="323.074" cy="120.916" r="87.6412" fill="#D497D6" fill-opacity="0.78"/>
<circle cx="323.074" cy="122.153" r="57.1215" fill="#B361B5"/>
</g>
<circle cx="173.227" cy="66.8167" r="10.1748" fill="#82C87B"/>
<rect width="23.7319" height="23.7419" transform="matrix(0.500316 -0.865843 0.866208 0.499684 452.358 323.222)" fill="#EED867"/>
<path d="M39.4351 284.854L62.8384 278.583L56.5614 255.192L33.1581 261.462L39.4351 284.854Z" fill="#E9831F"/>
<g clip-path="url(#clip0_5075_7866)">
<path d="M437.387 443.746L277.78 443.78L242.839 443.797H231.292L196.418 443.814L65.6021 444.437C65.5183 444.167 65.4346 443.881 65.3508 443.612C51.1899 396.311 94.1752 396.9 106.04 382.199C110.263 376.962 110.548 369.789 102.923 357.833C102.89 357.783 102.856 357.715 102.806 357.665C98.2475 350.508 94.9293 343.469 92.7507 336.599C88.1589 322.219 88.4773 308.545 92.6167 295.899C95.7505 286.317 101.08 277.342 108.118 269.091C110.867 265.875 113.866 262.776 117.101 259.796C182.056 199.95 340.456 188.6 362.376 293.188C374.811 352.495 394.469 318.177 434.89 360.309C448.23 374.218 452.738 388.379 452.888 400.992C453.173 425.24 437.387 443.746 437.387 443.746Z" fill="#C88FCA"/>
<path d="M173.075 335.169C173.075 335.169 149.669 331.288 133.762 344.433C117.875 357.579 127.258 380.051 114.126 382.972C95.2147 387.166 51.6968 393.175 56.2329 434.385C56.6886 438.558 189.044 434.385 189.044 434.385L183.369 345.602L173.075 335.169Z" fill="#9990D8"/>
<path d="M376.762 365.007C376.762 365.007 404.724 359.853 424.132 375.878C443.54 391.882 434.696 405.048 445.094 408.47C455.492 411.892 470.198 418.611 466.904 435.554H372.95L376.762 365.007Z" fill="#9990D8"/>
<path d="M379.494 114.034H156.809V422.992H379.494V114.034Z" fill="#ECEFF1"/>
<path d="M383.318 254.356H154.772V264.267H383.318V254.356Z" fill="#33547B"/>
<path opacity="0.5" d="M349.101 157.143H288.267V238.602H349.101V157.143Z" fill="white"/>
<path d="M347.588 158.624H289.737V237.079H347.588V158.624Z" fill="#CCE9FF"/>
<path d="M250.791 158.633H192.687V237.218H250.791V158.633Z" fill="#CCE9FF"/>
<path d="M351.917 237.079H350.613V176.381V173.022V155.62H286.817V173.022V176.381V237.079H285.512C282.26 237.079 279.609 239.729 279.609 243.026V243.235H357.8V243.026C357.8 239.729 355.169 237.079 351.917 237.079ZM289.779 158.603H347.63V173.001H289.779V158.603ZM289.779 176.381H347.63V237.079H289.779V176.381Z" fill="#BED8EA"/>
<path d="M346.78 159.897H290.835V162.735H346.78V159.897Z" fill="white"/>
<path d="M346.78 164.342H290.835V167.179H346.78V164.342Z" fill="white"/>
<path d="M346.78 168.786H290.835V171.624H346.78V168.786Z" fill="white"/>
<path d="M346.78 172.959H290.835V175.797H346.78V172.959Z" fill="white"/>
<path d="M346.78 177.654H290.835V180.492H346.78V177.654Z" fill="white"/>
<path d="M293.962 158.562H293.424V182.787H293.962V158.562Z" fill="white"/>
<path d="M344.502 158.562H343.963V182.787H344.502V158.562Z" fill="white"/>
<path d="M350.426 298.758H289.592V380.218H350.426V298.758Z" fill="#CCE9FF"/>
<path d="M351.917 378.694H350.613V317.996V314.637V297.235H286.817V314.637V317.996V378.694H285.512C282.26 378.694 279.609 381.344 279.609 384.641V384.85H357.8V384.641C357.8 381.365 355.169 378.694 351.917 378.694ZM289.779 300.239H347.63V314.637H289.779V300.239ZM289.779 317.996H347.63V378.694H289.779V317.996Z" fill="#BED8EA"/>
<path d="M392.024 403.598H146.084V434.947H392.024V403.598Z" fill="#BED8EA"/>
<path d="M224.422 435.554C224.422 435.554 220.197 420.217 202.591 415.084C184.984 409.951 186.124 412.518 170.237 403.358C154.35 394.219 129.37 399.936 124.254 407.364C119.138 414.792 107.228 418.798 90.7612 418.506C74.2944 418.214 73.4659 434.364 73.4659 434.364L224.422 435.554Z" fill="#7A7EBD"/>
<path d="M518.692 435.846H1.24082C0.888704 435.846 0.598724 435.554 0.598724 435.199V434.865C0.598724 434.51 0.888704 434.218 1.24082 434.218H518.671C519.023 434.218 519.313 434.51 519.313 434.865V435.199C519.313 435.554 519.023 435.846 518.692 435.846Z" fill="#7A7EBD"/>
<path opacity="0.5" d="M252.247 298.758H191.413V380.218H252.247V298.758Z" fill="white"/>
<path d="M250.756 300.26H192.904V378.715H250.756V300.26Z" fill="#CCE9FF"/>
<path d="M217.04 229.443C217.04 229.443 214.244 233.292 214.244 237.299H233.227C233.227 237.299 232.202 231.07 227.878 229.443C223.553 227.833 217.04 229.443 217.04 229.443Z" fill="#5A8FB6"/>
<path d="M240.279 208.745C240.279 208.745 237.292 216.391 236.962 216.671C236.058 217.406 230.553 208.92 229.702 207.433C228.851 205.946 223.623 207.223 223.171 204.459C223.032 203.619 222.754 202.691 222.754 202.097C222.754 202.027 222.754 201.957 222.754 201.887C222.754 201.344 222.789 200.767 222.876 200.155L222.615 200.172L218.221 200.522C218.221 200.522 218.656 201.589 218.517 202.884C218.464 203.304 218.447 204.091 218.395 204.861C218.343 205.718 217.752 206.453 216.936 206.698C215.06 207.258 212.716 208.098 212.316 209.148C211.517 211.195 209.746 220.468 209.398 223.617C209.051 226.766 205.89 235.969 205.89 235.969H207.47C207.47 235.969 213.41 225.909 213.914 224.352C214.07 223.862 214.643 221.955 215.338 219.505C215.998 222.147 216.936 224.789 217.144 225.874C217.509 227.746 214.07 233.817 214.418 235.497C214.765 237.176 232.897 238.086 232.654 235.497C232.411 232.907 229.858 228.516 229.337 226.469C228.955 224.929 229.841 219.768 230.118 216.706C232.897 219.89 236.666 222.865 237.813 222.252C240.783 220.695 241.72 209.13 241.72 209.13L240.279 208.745Z" fill="#FFC39A"/>
<path d="M219.628 197.74C219.628 197.74 217.266 199.629 219.263 202.376C219.263 202.376 216.953 202.289 216.363 201.677C216.363 201.677 216.467 201.956 216.571 202.079C216.571 202.079 214.435 201.904 213.636 201.117C212.837 200.347 214.695 189.429 220.479 191.354C220.479 191.354 225.533 191.581 224.387 197.372C223.223 203.164 225.116 203.391 225.116 203.391C225.116 203.391 224.56 203.584 224.3 203.566C224.3 203.566 223.953 203.374 223.9 203.164C223.9 203.164 223.935 203.496 224.022 203.619C224.022 203.619 221.955 203.566 221.035 202.674C220.062 201.764 219.194 198.912 219.628 197.74Z" fill="#5A8FB6"/>
<path d="M217.544 200.137C217.544 200.137 216.519 197.985 216.415 196.235C216.346 194.993 217.492 190.532 221.955 191.721C221.955 191.721 223.258 192.001 224.387 192.999C225.29 193.786 226.541 195.396 224.491 199.157L223.918 200.452L217.544 200.137Z" fill="#5A8FB6"/>
<path d="M223.154 204.459C219.975 203.986 218.186 200.627 218.186 200.627C219.489 200.487 221.278 201.152 222.737 201.869C222.737 201.939 222.737 202.009 222.737 202.079C222.737 202.674 222.945 203.619 223.154 204.459Z" fill="#ED975D"/>
<path d="M223.189 203.181C223.189 203.181 217.492 202.586 217.909 199.017C218.326 195.448 217.874 192.963 221.522 193.191C225.169 193.418 225.725 194.853 225.864 196.095C226.037 197.32 224.683 203.234 223.189 203.181Z" fill="#FFC39A"/>
<path d="M224.144 193.418C224.144 193.418 222.094 197.425 219.628 197.74C217.162 198.072 216.206 197.302 216.206 197.302C216.206 197.302 218.221 196.06 218.898 193.541C218.898 193.558 223.206 191.284 224.144 193.418Z" fill="#5A8FB6"/>
<path d="M223.71 193.716C223.71 193.716 224.769 194.783 224.943 195.728C225.117 196.673 225.03 198.562 225.568 198.562C225.568 198.562 227.079 195.85 225.95 194.083C224.752 192.211 223.71 193.716 223.71 193.716Z" fill="#5A8FB6"/>
<path d="M223.918 193.873C223.918 193.873 222.286 198.125 219.107 199.157C219.107 199.157 222.442 196.83 223.032 193.961C223.64 191.109 223.918 193.873 223.918 193.873Z" fill="#5A8FB6"/>
<path d="M222.025 201.081C222.025 201.081 222.164 201.589 222.512 201.676C222.859 201.764 223.78 201.851 223.849 201.781C223.936 201.711 224.196 201.256 224.196 201.256C224.196 201.256 222.755 200.924 222.025 201.081Z" fill="white"/>
<path d="M240.209 209.165C240.209 209.165 240.105 206.436 240.4 205.508C240.696 204.581 241.321 203.059 241.46 203.129C241.599 203.199 241.877 205.228 241.755 205.683C241.634 206.138 241.877 207.223 242.05 207.013C242.224 206.803 242.519 205.351 242.745 205.438C242.988 205.526 242.763 206.401 242.867 206.628C242.971 206.855 242.971 207.433 242.519 208.185C242.068 208.937 241.616 209.795 241.616 209.795L240.209 209.165Z" fill="#FFC39A"/>
<path d="M206.22 235.934C206.22 235.934 203.927 235.374 203.181 235.636C202.434 235.899 201.062 237.246 201.409 237.264C201.756 237.281 203.337 236.861 203.563 236.914C203.789 236.966 204.431 237.054 204.431 237.054C204.431 237.054 203.493 237.106 203.545 237.281C203.597 237.456 205.96 237.473 206.237 237.281C206.515 237.089 207.471 235.916 207.471 235.916H206.22V235.934Z" fill="#FFC39A"/>
<path d="M214.47 207.52C214.47 207.52 217.353 210.005 221.001 209.812C224.665 209.62 227.548 206.593 227.548 206.593C227.548 206.593 229.216 206.611 230.084 207.538C230.953 208.483 234.287 212.682 234.287 212.682C234.287 212.682 234.582 215.849 230.831 218.053L230.449 217.371C230.449 217.371 229.824 225.244 230.206 225.979C230.605 226.714 233.714 234.464 233.193 235.654C232.689 236.844 215.669 239.766 214.383 235.462C213.098 231.158 216.311 227.431 216.172 225.891C216.033 224.352 215.304 219.47 215.304 219.47C215.304 219.47 210.389 218.718 210.215 215.744C210.25 215.761 211.118 207.468 214.47 207.52Z" fill="white"/>
<path d="M255.064 378.694H253.759V317.996V314.637V297.235H189.963V314.637V317.996V378.694H188.658C185.406 378.694 182.755 381.344 182.755 384.641V384.85H260.967V384.641C260.967 381.365 258.316 378.694 255.064 378.694ZM192.946 300.239H250.797V314.637H192.946V300.239ZM192.946 317.996H250.797V378.694H192.946V317.996Z" fill="#BED8EA"/>
<path d="M249.927 301.533H193.982V304.371H249.927V301.533Z" fill="white"/>
<path d="M249.927 305.977H193.982V308.815H249.927V305.977Z" fill="white"/>
<path d="M249.927 310.422H193.982V313.259H249.927V310.422Z" fill="white"/>
<path d="M249.927 314.594H193.982V317.432H249.927V314.594Z" fill="white"/>
<path d="M249.927 319.289H193.982V322.127H249.927V319.289Z" fill="white"/>
<path d="M197.13 300.198H196.591V324.423H197.13V300.198Z" fill="white"/>
<path d="M247.649 300.198H247.11V324.423H247.649V300.198Z" fill="white"/>
<path d="M182.776 243.005V243.214H260.967V243.005C260.967 239.729 258.337 237.058 255.064 237.058H253.759V176.381V173.022V155.62H189.963V173.022V176.381V237.079H188.658C185.406 237.079 182.776 239.729 182.776 243.005ZM250.797 173.001H192.946V158.603H250.797V173.001ZM250.797 237.079H192.946V176.381H250.797V237.079Z" fill="#BED8EA"/>
<path d="M422.313 248.881H420.582L420.607 248.751L421.124 244.09C421.15 243.934 421.28 243.83 421.409 243.83C421.435 243.83 421.435 243.83 421.46 243.83C421.564 243.83 421.641 243.882 421.719 243.96C421.796 244.038 421.848 244.142 421.874 244.272L422.313 248.881Z" fill="#7A7EBD"/>
<path d="M420.736 247.84H420.685L421.124 244.09C421.15 243.934 421.279 243.83 421.408 243.83C421.434 243.83 421.434 243.83 421.46 243.83C421.486 243.856 421.486 243.856 421.512 243.882C421.589 243.96 421.641 244.064 421.641 244.194L421.667 246.876C421.641 247.397 421.253 247.814 420.736 247.84Z" fill="#7A7EBD"/>
<path d="M423.425 269.659H420.065V418.596H423.425V269.659Z" fill="#7A7EBD"/>
<path d="M421.615 269.659H420.065V418.596H421.615V269.659Z" fill="#7A7EBD"/>
<path d="M427.07 394.823H416.395V434.218H427.07V394.823Z" fill="#7A7EBD"/>
<path d="M422.753 394.823H416.395V434.218H422.753V394.823Z" fill="#7A7EBD"/>
<path d="M427.561 251.146C427.561 252.995 424.821 254.479 421.435 254.479C421.176 254.479 420.918 254.479 420.685 254.453C417.661 254.245 415.309 252.839 415.309 251.146C415.309 249.454 417.661 248.048 420.685 247.839C420.944 247.813 421.176 247.813 421.435 247.813C424.821 247.813 427.561 249.298 427.561 251.146Z" fill="#7A7EBD"/>
<path d="M424.382 251.146C424.382 252.631 422.857 253.906 420.66 254.453C417.636 254.245 415.284 252.839 415.284 251.146C415.284 249.454 417.636 248.048 420.66 247.84C422.857 248.386 424.382 249.662 424.382 251.146Z" fill="#7A7EBD"/>
<path d="M427.043 272.602H416.394L412.621 254.349H430.248L427.043 272.602Z" fill="#7A7EBD"/>
<path d="M431.205 252.969H411.69V254.714H431.205V252.969Z" fill="#7A7EBD"/>
<path d="M423.942 252.969H411.69V254.714H423.942V252.969Z" fill="#7A7EBD"/>
<path d="M418.152 394.823H424.976L423.968 391.777C423.89 391.516 423.632 391.334 423.348 391.334H420.142C419.806 391.334 419.496 391.542 419.341 391.855L418.152 394.823Z" fill="#7A7EBD"/>
<path d="M413.887 255.234H428.93L425.984 271.638H417.351L413.887 255.234Z" fill="#7A7EBD"/>
<path d="M415.723 251.329C415.723 251.329 416.86 248.803 419.134 248.881C419.134 248.881 417.687 250.183 417.816 251.329C417.946 252.5 415.723 251.329 415.723 251.329Z" fill="#7A7EBD"/>
<path d="M429.938 252.969H412.931L414.326 250.99H428.62L429.938 252.969Z" fill="#7A7EBD"/>
<path d="M425.751 252.969H412.931L414.326 250.99H424.433L425.751 252.969Z" fill="#7A7EBD"/>
<path d="M414.896 255.807H418.334L419.342 271.117H418.334L414.896 255.807Z" fill="#7A7EBD"/>
<path d="M392.158 100.955L143.545 109.978L144.158 127.119L392.771 118.096L392.158 100.955Z" fill="#33547B"/>
<path d="M258.606 136.569H185.303V152.364H258.606V136.569Z" fill="#5A8FB6"/>
<path d="M355.336 136.569H282.032V152.364H355.336V136.569Z" fill="#5A8FB6"/>
<path d="M258.606 275.389H185.303V291.184H258.606V275.389Z" fill="#5A8FB6"/>
<path d="M355.336 275.389H282.032V291.184H355.336V275.389Z" fill="#5A8FB6"/>
<path d="M249.709 159.897H193.763V162.735H249.709V159.897Z" fill="white"/>
<path d="M249.709 164.342H193.763V167.179H249.709V164.342Z" fill="white"/>
<path d="M249.709 168.786H193.763V171.624H249.709V168.786Z" fill="white"/>
<path d="M249.709 172.959H193.763V175.797H249.709V172.959Z" fill="white"/>
<path d="M249.709 177.654H193.763V180.492H249.709V177.654Z" fill="white"/>
<path d="M196.891 158.562H196.352V182.787H196.891V158.562Z" fill="white"/>
<path d="M247.43 158.562H246.892V182.787H247.43V158.562Z" fill="white"/>
<path d="M346.78 301.998H290.835V304.835H346.78V301.998Z" fill="white"/>
<path d="M346.78 306.442H290.835V309.28H346.78V306.442Z" fill="white"/>
<path d="M346.78 310.886H290.835V313.724H346.78V310.886Z" fill="white"/>
<path d="M346.78 315.059H290.835V317.897H346.78V315.059Z" fill="white"/>
<path d="M346.78 319.754H290.835V322.592H346.78V319.754Z" fill="white"/>
<path d="M293.962 300.662H293.424V324.887H293.962V300.662Z" fill="white"/>
<path d="M344.502 300.662H343.963V324.887H344.502V300.662Z" fill="white"/>
<path d="M329.996 378.878C332.155 378.878 333.056 377.144 333.414 375.311C333.816 373.238 333.523 371.034 333.523 371.034H326.459C326.459 371.034 326.448 371.121 326.437 371.263C326.307 372.572 325.883 378.878 329.996 378.878Z" fill="#5A8FB6"/>
<path d="M326.469 371.034C326.469 371.187 328.054 371.318 329.996 371.318C331.949 371.318 333.523 371.187 333.523 371.034C333.523 370.881 331.938 370.751 329.996 370.751C328.043 370.751 326.469 370.881 326.469 371.034Z" fill="#234965"/>
<path d="M320.436 351.353C320.436 351.353 324.158 357.048 326.393 360.528C328.629 364.008 329.215 364.728 329.475 365.852C329.747 366.976 329.985 371.121 329.985 371.121H330.148C330.148 371.121 330.094 367.608 329.888 366.419C329.692 365.274 329.898 364.859 330.061 363.659C330.224 362.459 330.43 360.528 329.226 359.197C328.01 357.855 328.336 356.546 327.913 355.662C327.489 354.778 324.191 353.709 323.767 352.804C323.333 351.887 321.478 351.32 320.436 351.353Z" fill="#33547B"/>
<path d="M320.436 351.353C320.436 351.353 321.608 352.695 322.4 353.142C323.203 353.6 323.572 353.197 324.18 354.288C324.787 355.379 324.82 355.869 325.373 356.426C325.938 356.982 326.6 357.015 326.654 358.248C326.708 359.481 326.383 360.517 326.383 360.517C326.383 360.517 320.675 351.647 320.436 351.353Z" fill="#A5BDD0"/>
<path d="M329.692 371.111H329.529C329.529 371.111 329.475 369.976 329.03 369.419C328.737 369.059 327.511 368.656 326.285 368.176C325.612 367.903 324.95 367.619 324.44 367.292C323.019 366.386 321.673 363.474 321.554 362.95C321.51 362.764 321.5 362.655 321.5 362.579C321.5 362.437 321.576 362.415 321.695 362.273C321.749 362.208 321.923 362.23 322.14 362.295C322.747 362.481 323.268 362.906 323.583 363.463C323.876 363.975 324.353 364.619 324.929 364.772C325.927 365.045 325.84 365.208 326.209 366.234C326.578 367.259 327.511 367.423 328.672 368.634C329.844 369.834 329.692 371.111 329.692 371.111Z" fill="#33547B"/>
<path d="M326.285 368.176C325.612 367.903 324.95 367.619 324.44 367.292C323.019 366.386 321.673 363.474 321.554 362.95C321.51 362.764 321.5 362.655 321.5 362.579C321.5 362.612 321.565 363.07 322.303 363.386C323.073 363.703 323.214 363.703 323.323 364.194C323.42 364.685 323.507 365.197 323.909 365.295C324.31 365.394 324.56 364.946 324.874 365.677C325.189 366.419 325.341 366.67 325.634 366.768C325.927 366.867 326.144 366.714 326.209 367.292C326.252 367.641 326.274 367.968 326.285 368.176Z" fill="#A5BDD0"/>
<path d="M330.918 371.111H331.114C331.114 371.111 331.504 364.063 332.036 363.408C332.383 362.983 333.512 362.23 334.955 361.652C335.747 361.335 336.539 360.986 337.136 360.604C338.818 359.535 340.413 356.077 340.554 355.466C340.598 355.247 340.619 355.116 340.619 355.029C340.619 354.866 340.533 354.844 340.392 354.669C340.326 354.593 340.12 354.615 339.871 354.691C339.144 354.909 338.536 355.411 338.156 356.066C337.809 356.677 337.245 357.44 336.561 357.615C335.378 357.931 335.476 358.128 335.042 359.339C334.608 360.55 333.501 360.746 332.123 362.175C330.734 363.626 330.918 371.111 330.918 371.111Z" fill="#33547B"/>
<path d="M334.955 361.652C335.747 361.335 336.539 360.986 337.136 360.604C338.818 359.535 340.413 356.077 340.554 355.466C340.598 355.247 340.619 355.116 340.619 355.029C340.619 355.073 340.533 355.618 339.665 355.978C338.753 356.349 338.579 356.349 338.46 356.928C338.341 357.506 338.243 358.117 337.766 358.237C337.288 358.357 336.995 357.822 336.626 358.695C336.246 359.568 336.073 359.862 335.726 359.982C335.378 360.102 335.118 359.928 335.042 360.593C334.988 361.019 334.966 361.412 334.955 361.652Z" fill="#A5BDD0"/>
<path d="M329.996 378.878C332.155 378.878 333.056 377.144 333.414 375.311C331.298 374.504 328.64 373.216 326.437 371.274C326.307 372.573 325.883 378.878 329.996 378.878Z" fill="#5A8FB6"/>
<path d="M309.921 378.772C307.863 378.772 307.002 377.114 306.652 375.369C306.273 373.388 306.55 371.29 306.55 371.29H313.291C313.291 371.29 313.306 371.364 313.32 371.51C313.452 372.757 313.846 378.772 309.921 378.772Z" fill="#5A8FB6"/>
<path d="M313.291 371.29C313.291 371.437 311.788 371.554 309.921 371.554C308.068 371.554 306.55 371.437 306.55 371.29C306.55 371.144 308.053 371.026 309.921 371.026C311.788 371.026 313.291 371.144 313.291 371.29Z" fill="#234965"/>
<path d="M301.545 352.513C301.545 352.513 305.091 357.94 307.236 361.256C309.366 364.571 309.921 365.261 310.183 366.332C310.431 367.403 310.665 371.364 310.665 371.364H310.942C310.942 371.364 311.117 368.019 310.796 366.919C310.461 365.818 310.592 365.393 310.752 364.234C310.898 363.09 311.103 361.256 309.95 359.98C308.797 358.703 309.104 357.456 308.695 356.605C308.286 355.769 305.149 354.742 304.741 353.877C304.303 353.026 302.538 352.498 301.545 352.513Z" fill="#33547B"/>
<path d="M301.545 352.513C301.545 352.513 302.669 353.789 303.428 354.229C304.186 354.669 304.551 354.273 305.135 355.329C305.718 356.371 305.748 356.84 306.273 357.368C306.813 357.911 307.44 357.926 307.499 359.099C307.542 360.273 307.251 361.271 307.251 361.271C307.251 361.271 301.764 352.806 301.545 352.513Z" fill="#A5BDD0"/>
<path d="M309.819 371.378H309.57C309.57 371.378 309.498 369.647 308.812 368.796C308.374 368.254 306.492 367.637 304.639 366.904C303.617 366.493 302.596 366.053 301.837 365.569C299.678 364.19 297.62 359.76 297.445 358.967C297.387 358.689 297.358 358.527 297.358 358.41C297.358 358.19 297.474 358.161 297.65 357.955C297.737 357.852 298 357.882 298.321 357.984C299.255 358.263 300.043 358.909 300.524 359.76C300.976 360.537 301.691 361.52 302.567 361.755C304.084 362.165 303.967 362.415 304.522 363.97C305.076 365.525 306.492 365.774 308.272 367.623C310.037 369.427 309.819 371.378 309.819 371.378Z" fill="#33547B"/>
<path d="M304.624 366.904C303.603 366.493 302.581 366.053 301.823 365.569C299.663 364.19 297.606 359.76 297.431 358.967C297.372 358.689 297.343 358.527 297.343 358.41C297.343 358.469 297.445 359.158 298.569 359.628C299.736 360.112 299.97 360.112 300.115 360.845C300.261 361.579 300.393 362.371 301.006 362.532C301.618 362.679 301.998 361.989 302.479 363.119C302.961 364.234 303.194 364.63 303.632 364.777C304.07 364.923 304.405 364.703 304.507 365.569C304.58 366.082 304.61 366.581 304.624 366.904Z" fill="#A5BDD0"/>
<path d="M309.921 378.772C307.863 378.772 307.002 377.114 306.652 375.369C308.666 374.606 311.205 373.373 313.306 371.51C313.452 372.757 313.846 378.772 309.921 378.772Z" fill="#5A8FB6"/>
</g>
<defs>
<linearGradient id="paint0_linear_5075_7866" x1="328.333" y1="1.04987e-06" x2="319.879" y2="188.157" gradientUnits="userSpaceOnUse">
<stop/>
<stop offset="1" stop-color="#C4C4C4" stop-opacity="0"/>
</linearGradient>
<clipPath id="clip0_5075_7866">
<rect width="519.591" height="378.501" fill="white" transform="translate(0.598724 56.4452)"/>
</clipPath>
</defs>
</svg>
