<svg width="58" height="58" viewBox="0 0 58 58" fill="none" xmlns="http://www.w3.org/2000/svg">
<circle cx="30.5" cy="30.5" r="27.5" fill="#F2C110"/>
<rect x="0.5" y="0.5" width="54" height="54" rx="27" fill="white"/>
<path d="M31.1747 32.1694C31.4191 32.1694 31.6116 32.2397 31.7522 32.3803C31.8989 32.5147 31.9722 32.695 31.9722 32.9211V34.2778H22.8789V33.5261C22.8789 33.3733 22.9094 33.2144 22.9705 33.0494C23.0377 32.8783 23.1416 32.7255 23.2822 32.5911L27.3064 28.5578C27.6425 28.2155 27.9419 27.8886 28.2047 27.5769C28.4736 27.2653 28.6966 26.9567 28.8739 26.6511C29.0511 26.3455 29.1855 26.0369 29.2772 25.7253C29.375 25.4075 29.4239 25.0744 29.4239 24.7261C29.4239 24.4083 29.378 24.1303 29.2864 23.8919C29.1947 23.6475 29.0633 23.4428 28.8922 23.2778C28.7272 23.1128 28.5255 22.9905 28.2872 22.9111C28.055 22.8255 27.7922 22.7828 27.4989 22.7828C27.23 22.7828 26.9794 22.8225 26.7472 22.9019C26.5211 22.9753 26.3194 23.0822 26.1422 23.2228C25.965 23.3572 25.8152 23.5161 25.693 23.6994C25.5708 23.8828 25.4791 24.0844 25.418 24.3044C25.3141 24.5855 25.1797 24.7719 25.0147 24.8636C24.8497 24.9553 24.6114 24.9767 24.2997 24.9278L23.108 24.7169C23.1997 24.0814 23.3769 23.5253 23.6397 23.0486C23.9025 22.5658 24.2294 22.1655 24.6205 21.8478C25.0177 21.5239 25.47 21.2825 25.9772 21.1236C26.4905 20.9586 27.0405 20.8761 27.6272 20.8761C28.2383 20.8761 28.7975 20.9678 29.3047 21.1511C29.8119 21.3283 30.2458 21.5819 30.6064 21.9119C30.9669 22.2419 31.248 22.6392 31.4497 23.1036C31.6514 23.568 31.7522 24.0844 31.7522 24.6528C31.7522 25.1417 31.6789 25.5939 31.5322 26.0094C31.3916 26.425 31.1991 26.8222 30.9547 27.2011C30.7164 27.58 30.4352 27.9467 30.1114 28.3011C29.7875 28.6555 29.4483 29.0161 29.0939 29.3828L26.1055 32.4353C26.3927 32.3497 26.6769 32.2855 26.958 32.2428C27.2452 32.1939 27.5172 32.1694 27.7739 32.1694H31.1747Z" fill="#B361B5"/>
<rect x="0.5" y="0.5" width="54" height="54" rx="27" stroke="#B361B5"/>
</svg>
