<svg width="58" height="58" viewBox="0 0 58 58" fill="none" xmlns="http://www.w3.org/2000/svg">
<circle cx="30.5" cy="30.5" r="27.5" fill="#F2C110"/>
<rect x="0.5" y="0.5" width="54" height="54" rx="27" fill="white"/>
<path d="M31.6697 32.5819V34.2778H24.3364V32.5819H27.0222V24.8544C27.0222 24.5489 27.0314 24.2342 27.0497 23.9103L25.143 25.5053C25.033 25.5908 24.923 25.6458 24.813 25.6703C24.7091 25.6886 24.6083 25.6886 24.5105 25.6703C24.4189 25.6519 24.3364 25.6214 24.263 25.5786C24.1897 25.5297 24.1347 25.4778 24.098 25.4228L23.383 24.4419L27.4255 21.0044H29.2864V32.5819H31.6697Z" fill="#B361B5"/>
<rect x="0.5" y="0.5" width="54" height="54" rx="27" stroke="#B361B5"/>
</svg>
