<svg width="58" height="58" viewBox="0 0 58 58" fill="none" xmlns="http://www.w3.org/2000/svg">
<circle cx="30.5" cy="30.5" r="27.5" fill="#F2C110"/>
<rect x="0.5" y="0.5" width="54" height="54" rx="27" fill="white"/>
<path d="M23.1722 24.7169C23.2638 24.0814 23.4411 23.5253 23.7039 23.0486C23.9666 22.5658 24.2936 22.1655 24.6847 21.8478C25.0819 21.5239 25.5341 21.2825 26.0414 21.1236C26.5547 20.9586 27.1047 20.8761 27.6914 20.8761C28.3025 20.8761 28.8525 20.9647 29.3414 21.1419C29.8364 21.313 30.258 21.5544 30.6064 21.8661C30.9547 22.1717 31.2205 22.5322 31.4039 22.9478C31.5933 23.3633 31.688 23.8125 31.688 24.2953C31.688 24.7169 31.6391 25.0897 31.5414 25.4136C31.4497 25.7314 31.3152 26.0094 31.138 26.2478C30.9608 26.4861 30.7408 26.6878 30.478 26.8528C30.2152 27.0178 29.9189 27.1553 29.5889 27.2653C30.3833 27.5158 30.9761 27.8978 31.3672 28.4111C31.7583 28.9244 31.9539 29.5692 31.9539 30.3453C31.9539 31.0053 31.8316 31.5889 31.5872 32.0961C31.3427 32.6033 31.0127 33.0311 30.5972 33.3794C30.1816 33.7217 29.6989 33.9814 29.1489 34.1586C28.605 34.3358 28.0275 34.4244 27.4164 34.4244C26.7502 34.4244 26.1697 34.348 25.6747 34.1953C25.1797 34.0425 24.7489 33.8164 24.3822 33.5169C24.0155 33.2175 23.7039 32.8508 23.4472 32.4169C23.1905 31.983 22.9705 31.4819 22.7872 30.9136L23.7864 30.5011C24.0491 30.3911 24.2936 30.3636 24.5197 30.4186C24.7519 30.4675 24.92 30.5897 25.0239 30.7853C25.1339 30.9992 25.253 31.21 25.3814 31.4178C25.5158 31.6255 25.6747 31.8119 25.858 31.9769C26.0414 32.1358 26.2552 32.2672 26.4997 32.3711C26.7502 32.4689 27.0466 32.5178 27.3889 32.5178C27.7739 32.5178 28.11 32.4567 28.3972 32.3344C28.6844 32.2061 28.9227 32.0411 29.1122 31.8394C29.3077 31.6378 29.4514 31.4147 29.543 31.1703C29.6408 30.9197 29.6897 30.6692 29.6897 30.4186C29.6897 30.1008 29.6561 29.8136 29.5889 29.5569C29.5216 29.2942 29.3811 29.0711 29.1672 28.8878C28.9533 28.7044 28.6447 28.5608 28.2414 28.4569C27.8441 28.353 27.3094 28.3011 26.6372 28.3011V26.6878C27.1933 26.6817 27.6547 26.6297 28.0214 26.5319C28.388 26.4342 28.6783 26.2997 28.8922 26.1286C29.1122 25.9514 29.265 25.7405 29.3505 25.4961C29.4361 25.2517 29.4789 24.9828 29.4789 24.6894C29.4789 24.0661 29.3047 23.5925 28.9564 23.2686C28.608 22.9447 28.1436 22.7828 27.563 22.7828C27.2941 22.7828 27.0466 22.8225 26.8205 22.9019C26.5944 22.9753 26.3897 23.0822 26.2064 23.2228C26.0291 23.3572 25.8794 23.5161 25.7572 23.6994C25.635 23.8828 25.5433 24.0844 25.4822 24.3044C25.3783 24.5855 25.2408 24.7719 25.0697 24.8636C24.9047 24.9553 24.6694 24.9767 24.3639 24.9278L23.1722 24.7169Z" fill="#B361B5"/>
<rect x="0.5" y="0.5" width="54" height="54" rx="27" stroke="#B361B5"/>
</svg>
