<svg width="101" height="100" viewBox="0 0 101 100" fill="none" xmlns="http://www.w3.org/2000/svg">
<path d="M90.1 50C90.1008 44.0899 88.7786 38.2545 86.2305 32.9219C83.6824 27.5892 79.973 22.8946 75.3743 19.1822C70.7757 15.4698 65.4043 12.8338 59.6543 11.4676C53.9042 10.1013 47.9212 10.0395 42.1442 11.2866C36.3671 12.5336 30.9424 15.058 26.268 18.6746C21.5935 22.2911 17.7879 26.9081 15.1301 32.1869C12.4723 37.4657 11.0298 43.2725 10.9084 49.1814C10.787 55.0903 11.9897 60.9514 14.4284 66.335H86.5717C88.901 61.2045 90.1041 55.6345 90.1 50Z" fill="#F1DDF1"/>
<path d="M11.89 66.335H89.11" stroke="#B361B5" stroke-linecap="round" stroke-linejoin="round"/>
<path d="M7.43506 66.335H9.91006" stroke="#B361B5" stroke-linecap="round" stroke-linejoin="round"/>
<path d="M91.09 66.335H93.565" stroke="#B361B5" stroke-linecap="round" stroke-linejoin="round"/>
<path d="M69.3011 47.3923H62.974L64.4867 34.3243C64.5241 34.0032 64.6782 33.7069 64.9196 33.4919C65.1611 33.2769 65.4732 33.1581 65.7965 33.1581H66.4786C66.8019 33.1581 67.114 33.2769 67.3554 33.4919C67.5969 33.7069 67.751 34.0032 67.7884 34.3243L69.3011 47.3923Z" fill="#CA91CC" stroke="#B361B5" stroke-linecap="round" stroke-linejoin="round"/>
<path d="M71.2781 41.0662C71.2783 40.8931 71.2443 40.7217 71.1781 40.5617C71.1119 40.4017 71.0149 40.2563 70.8925 40.1339C70.7702 40.0114 70.6249 39.9142 70.4649 39.848C70.305 39.7817 70.1336 39.7476 69.9604 39.7476H61.786V47.525H71.2752L71.2781 41.0662Z" fill="#CA91CC" stroke="#B361B5" stroke-linecap="round" stroke-linejoin="round"/>
<path d="M45.5787 36.5608V74.6738H72.5968V50.0703L45.5787 36.5608Z" fill="white"/>
<path d="M45.5787 36.5608V74.6738H72.5968V50.0703L45.5787 36.5608Z" stroke="#B361B5" stroke-linecap="round" stroke-linejoin="round"/>
<path d="M66.6657 63.4709C66.6657 63.1218 66.5272 62.7869 66.2805 62.5399C66.0338 62.2928 65.6991 62.1538 65.35 62.1532H52.1682C51.8187 62.1532 51.4835 62.2921 51.2364 62.5392C50.9893 62.7863 50.8505 63.1214 50.8505 63.4709V74.651H66.6657V63.4709Z" fill="#CA91CC"/>
<path d="M66.6657 63.4709C66.6657 63.1218 66.5272 62.7869 66.2805 62.5399C66.0338 62.2928 65.6991 62.1538 65.35 62.1532H52.1682C51.8187 62.1532 51.4835 62.2921 51.2364 62.5392C50.9893 62.7863 50.8505 63.1214 50.8505 63.4709V74.651H66.6657V63.4709Z" stroke="#B361B5" stroke-linecap="round" stroke-linejoin="round"/>
<path d="M75.8915 49.5852C75.8913 49.8098 75.8338 50.0307 75.7244 50.2269C75.6149 50.4231 75.4572 50.5881 75.2661 50.7062C75.075 50.8243 74.8569 50.8916 74.6325 50.9018C74.408 50.912 74.1847 50.8646 73.9837 50.7643L43.4076 35.4757C43.1887 35.3661 43.0047 35.1977 42.876 34.9895C42.7473 34.7813 42.6791 34.5414 42.679 34.2966V32.4988C42.6788 32.2741 42.7361 32.0532 42.8454 31.8569C42.9547 31.6607 43.1125 31.4957 43.3036 31.3776C43.4947 31.2595 43.7128 31.1923 43.9372 31.1824C44.1616 31.1724 44.3849 31.22 44.5857 31.3207L75.1628 46.6082C75.3817 46.7179 75.5657 46.8862 75.6944 47.0944C75.8231 47.3027 75.8913 47.5426 75.8915 47.7873V49.5852Z" fill="#CA91CC" stroke="#B361B5" stroke-linecap="round" stroke-linejoin="round"/>
<path d="M50.1912 50.9504C50.1912 51.3831 50.2764 51.8115 50.442 52.2112C50.6075 52.611 50.8502 52.9742 51.1562 53.2801C51.4621 53.5861 51.8253 53.8287 52.225 53.9943C52.6248 54.1599 53.0532 54.2451 53.4859 54.2451C53.9186 54.2451 54.347 54.1599 54.7467 53.9943C55.1464 53.8287 55.5097 53.5861 55.8156 53.2801C56.1215 52.9742 56.3642 52.611 56.5298 52.2112C56.6954 51.8115 56.7806 51.3831 56.7806 50.9504C56.7806 50.5177 56.6954 50.0893 56.5298 49.6896C56.3642 49.2898 56.1215 48.9266 55.8156 48.6207C55.5097 48.3147 55.1464 48.072 54.7467 47.9065C54.347 47.7409 53.9186 47.6557 53.4859 47.6557C53.0532 47.6557 52.6248 47.7409 52.225 47.9065C51.8253 48.072 51.4621 48.3147 51.1562 48.6207C50.8502 48.9266 50.6075 49.2898 50.442 49.6896C50.2764 50.0893 50.1912 50.5177 50.1912 50.9504Z" fill="#CA91CC"/>
<path d="M58.7576 62.1532V74.65" stroke="#B361B5" stroke-linecap="round" stroke-linejoin="round"/>
<path d="M23.173 74.6738H45.5787V47.7636L23.173 58.7605V74.6738Z" fill="white"/>
<path d="M23.173 74.6738H45.5787V47.7636L23.173 58.7605V74.6738Z" stroke="#B361B5" stroke-linecap="round" stroke-linejoin="round"/>
<path d="M45.5787 43.0195L20.6069 55.3074C20.388 55.4167 20.2039 55.5848 20.0752 55.7929C19.9465 56.001 19.8783 56.2408 19.8783 56.4855V58.2833C19.8778 58.5086 19.9351 58.7303 20.0447 58.9271C20.1543 59.124 20.3125 59.2895 20.5043 59.4077C20.696 59.526 20.9149 59.5931 21.14 59.6027C21.3651 59.6123 21.5889 59.564 21.79 59.4624L45.5787 47.7636V43.0195Z" fill="#CA91CC" stroke="#B361B5" stroke-linecap="round" stroke-linejoin="round"/>
<path d="M42.283 63.4709C42.283 63.1214 42.1442 62.7863 41.8971 62.5392C41.65 62.2921 41.3148 62.1532 40.9653 62.1532H27.7865C27.6133 62.1531 27.4419 62.1871 27.2819 62.2532C27.1219 62.3194 26.9765 62.4165 26.8541 62.5388C26.7316 62.6612 26.6345 62.8065 26.5682 62.9664C26.5019 63.1264 26.4678 63.2978 26.4678 63.4709V74.6738H42.283V63.4709Z" fill="#CA91CC" stroke="#B361B5" stroke-linecap="round" stroke-linejoin="round"/>
<path d="M26.4678 65.448H42.283" stroke="#B361B5" stroke-linecap="round" stroke-linejoin="round"/>
<path d="M26.4678 68.7427H42.283" stroke="#B361B5" stroke-linecap="round" stroke-linejoin="round"/>
<path d="M26.4678 72.0374H42.283" stroke="#B361B5" stroke-linecap="round" stroke-linejoin="round"/>
<path d="M50.1912 50.9504C50.1912 51.3831 50.2764 51.8115 50.442 52.2112C50.6075 52.611 50.8502 52.9742 51.1562 53.2801C51.4621 53.5861 51.8253 53.8287 52.225 53.9943C52.6248 54.1599 53.0532 54.2451 53.4859 54.2451C53.9186 54.2451 54.347 54.1599 54.7467 53.9943C55.1464 53.8287 55.5097 53.5861 55.8156 53.2801C56.1215 52.9742 56.3642 52.611 56.5298 52.2112C56.6954 51.8115 56.7806 51.3831 56.7806 50.9504C56.7806 50.5177 56.6954 50.0893 56.5298 49.6896C56.3642 49.2898 56.1215 48.9266 55.8156 48.6207C55.5097 48.3147 55.1464 48.072 54.7467 47.9065C54.347 47.7409 53.9186 47.6557 53.4859 47.6557C53.0532 47.6557 52.6248 47.7409 52.225 47.9065C51.8253 48.072 51.4621 48.3147 51.1562 48.6207C50.8502 48.9266 50.6075 49.2898 50.442 49.6896C50.2764 50.0893 50.1912 50.5177 50.1912 50.9504Z" stroke="#B361B5"/>
<path d="M81.6473 68.7239V64.7253" stroke="#B361B5" stroke-linecap="round" stroke-linejoin="round"/>
<path d="M85.6331 61.3236C85.6331 62.3805 85.2133 63.394 84.466 64.1413C83.7187 64.8886 82.7051 65.3084 81.6483 65.3084C80.5915 65.3084 79.578 64.8886 78.8307 64.1413C78.0834 63.394 77.6636 62.3805 77.6636 61.3236C77.6636 59.6337 80.0128 51.4761 81.1038 47.7804C81.1376 47.6621 81.2091 47.558 81.3073 47.4839C81.4056 47.4098 81.5253 47.3697 81.6483 47.3697C81.7714 47.3697 81.8911 47.4098 81.9893 47.4839C82.0876 47.558 82.159 47.6621 82.1928 47.7804C83.2828 51.4761 85.6331 59.6337 85.6331 61.3236Z" fill="#CA91CC"/>
<path d="M85.6331 61.3236C85.6331 62.3805 85.2133 63.394 84.466 64.1413C83.7187 64.8886 82.7051 65.3084 81.6483 65.3084C80.5915 65.3084 79.578 64.8886 78.8307 64.1413C78.0834 63.394 77.6636 62.3805 77.6636 61.3236C77.6636 59.6337 80.0128 51.4761 81.1038 47.7804C81.1376 47.6621 81.2091 47.558 81.3073 47.4839C81.4056 47.4098 81.5253 47.3697 81.6483 47.3697C81.7714 47.3697 81.8911 47.4098 81.9893 47.4839C82.0876 47.558 82.159 47.6621 82.1928 47.7804C83.2828 51.4761 85.6331 59.6337 85.6331 61.3236Z" stroke="#B361B5" stroke-linecap="round" stroke-linejoin="round"/>
<path d="M28.6656 26.4528C28.2561 26.4552 27.8506 26.5334 27.4697 26.6835C27.2638 25.3875 26.6023 24.2075 25.6042 23.3555C24.6062 22.5035 23.3369 22.0354 22.0247 22.0354C20.7124 22.0354 19.4432 22.5035 18.4451 23.3555C17.4471 24.2075 16.7856 25.3875 16.5797 26.6835C16.125 26.5071 15.6369 26.433 15.1503 26.4667C14.6637 26.5003 14.1905 26.6408 13.7644 26.8782C13.3383 27.1155 12.9698 27.4439 12.685 27.8399C12.4003 28.2359 12.2063 28.6898 12.117 29.1693C12.0276 29.6488 12.045 30.1421 12.168 30.6141C12.291 31.0861 12.5166 31.5252 12.8286 31.9001C13.1406 32.275 13.5314 32.5765 13.9733 32.7832C14.4151 32.9898 14.897 33.0966 15.3848 33.0957H28.6656C29.1018 33.0957 29.5337 33.0098 29.9367 32.8429C30.3396 32.676 30.7058 32.4313 31.0142 32.1229C31.3226 31.8145 31.5673 31.4483 31.7342 31.0454C31.9011 30.6424 31.9871 30.2105 31.9871 29.7743C31.9871 29.3381 31.9011 28.9062 31.7342 28.5032C31.5673 28.1003 31.3226 27.7341 31.0142 27.4257C30.7058 27.1173 30.3396 26.8726 29.9367 26.7057C29.5337 26.5388 29.1018 26.4528 28.6656 26.4528Z" fill="white" stroke="#B361B5" stroke-linejoin="round"/>
</svg>
