<svg width="101" height="100" viewBox="0 0 101 100" fill="none" xmlns="http://www.w3.org/2000/svg">
<path d="M89.9268 49.9505C89.9276 44.0404 88.6054 38.205 86.0573 32.8724C83.5092 27.5397 79.7998 22.8451 75.2011 19.1327C70.6024 15.4203 65.2311 12.7843 59.481 11.4181C53.731 10.0518 47.748 9.98999 41.9709 11.2371C36.1939 12.4841 30.7692 15.0085 26.0948 18.6251C21.4203 22.2416 17.6146 26.8586 14.9569 32.1374C12.2991 37.4162 10.8566 43.223 10.7352 49.1319C10.6137 55.0408 11.8165 60.9019 14.2552 66.2855H86.3984C88.7277 61.155 89.9308 55.585 89.9268 49.9505Z" fill="#F1DDF1"/>
<path d="M11.7168 66.2855H88.9368" stroke="#B361B5" stroke-linecap="round" stroke-linejoin="round"/>
<path d="M7.26172 66.2855H9.73672" stroke="#B361B5" stroke-linecap="round" stroke-linejoin="round"/>
<path d="M90.9167 66.2855H93.3917" stroke="#B361B5" stroke-linecap="round" stroke-linejoin="round"/>
<path d="M27.5686 42.3325H38.3497V66.3053H27.5686V42.3325Z" fill="#CA91CC" stroke="#B361B5" stroke-linecap="round" stroke-linejoin="round"/>
<path d="M72.4354 45.9261H83.2165V66.3053H72.4354V45.9261Z" fill="#CA91CC" stroke="#B361B5" stroke-linecap="round" stroke-linejoin="round"/>
<path d="M69.4624 69.602L74.547 64.5183L80.4762 70.4484L75.3915 75.5321L69.4624 69.602Z" fill="white" stroke="#B361B5" stroke-linecap="round" stroke-linejoin="round"/>
<path d="M92.3354 80.6118C93.2202 81.5132 93.7132 82.7276 93.7073 83.9907C93.7013 85.2538 93.1969 86.4635 92.3036 87.3566C91.4104 88.2497 90.2007 88.754 88.9376 88.7597C87.6745 88.7655 86.4602 88.2723 85.5588 87.3873L75.3945 77.225C75.2832 77.1138 75.1949 76.9818 75.1346 76.8365C75.0743 76.6911 75.0433 76.5354 75.0433 76.378C75.0433 76.2207 75.0743 76.0649 75.1346 75.9196C75.1949 75.7743 75.2832 75.6423 75.3945 75.5311L80.4762 70.4484C80.7009 70.2241 81.0055 70.0981 81.3231 70.0981C81.6407 70.0981 81.9453 70.2241 82.1701 70.4484L92.3354 80.6118Z" fill="#CA91CC"/>
<path d="M92.3354 80.6118C93.2202 81.5132 93.7132 82.7276 93.7073 83.9907C93.7013 85.2538 93.1969 86.4635 92.3036 87.3566C91.4104 88.2497 90.2007 88.754 88.9376 88.7597C87.6745 88.7655 86.4602 88.2723 85.5588 87.3873L75.3945 77.225C75.2832 77.1138 75.1949 76.9818 75.1346 76.8365C75.0743 76.6911 75.0433 76.5354 75.0433 76.378C75.0433 76.2207 75.0743 76.0649 75.1346 75.9196C75.1949 75.7743 75.2832 75.6423 75.3945 75.5311L80.4762 70.4484C80.7009 70.2241 81.0055 70.0981 81.3231 70.0981C81.6407 70.0981 81.9453 70.2241 82.1701 70.4484L92.3354 80.6118Z" stroke="#B361B5" stroke-linecap="round" stroke-linejoin="round"/>
<path d="M29.908 50.1188C29.908 53.4223 30.5586 56.6935 31.8228 59.7455C33.087 62.7976 34.94 65.5708 37.276 67.9067C39.6119 70.2426 42.3851 72.0956 45.4371 73.3598C48.4892 74.624 51.7603 75.2747 55.0639 75.2747C58.3674 75.2747 61.6385 74.624 64.6906 73.3598C67.7427 72.0956 70.5158 70.2426 72.8518 67.9067C75.1877 65.5708 77.0407 62.7976 78.3049 59.7455C79.5691 56.6935 80.2198 53.4223 80.2198 50.1188C80.2198 46.8153 79.5691 43.5441 78.3049 40.492C77.0407 37.44 75.1877 34.6668 72.8518 32.3309C70.5158 29.9949 67.7427 28.142 64.6906 26.8778C61.6385 25.6136 58.3674 24.9629 55.0639 24.9629C51.7603 24.9629 48.4892 25.6136 45.4371 26.8778C42.3851 28.142 39.6119 29.9949 37.276 32.3309C34.94 34.6668 33.087 37.44 31.8228 40.492C30.5586 43.5441 29.908 46.8153 29.908 50.1188Z" fill="white"/>
<path d="M29.908 50.1188C29.908 53.4223 30.5586 56.6935 31.8228 59.7455C33.087 62.7976 34.94 65.5708 37.276 67.9067C39.6119 70.2426 42.3851 72.0956 45.4371 73.3598C48.4892 74.624 51.7603 75.2747 55.0639 75.2747C58.3674 75.2747 61.6386 74.624 64.6906 73.3598C67.7427 72.0956 70.5158 70.2426 72.8518 67.9067C75.1877 65.5708 77.0407 62.7976 78.3049 59.7455C79.5691 56.6935 80.2198 53.4223 80.2198 50.1188C80.2198 46.8153 79.5691 43.5441 78.3049 40.492C77.0407 37.44 75.1877 34.6668 72.8518 32.3309C70.5158 29.9949 67.7427 28.142 64.6906 26.8778C61.6386 25.6136 58.3674 24.9629 55.0639 24.9629C51.7603 24.9629 48.4892 25.6136 45.4371 26.8778C42.3851 28.142 39.6119 29.9949 37.276 32.3309C34.94 34.6668 33.087 37.44 31.8228 40.492C30.5586 43.5441 29.908 46.8153 29.908 50.1188Z" stroke="#B361B5" stroke-linecap="round" stroke-linejoin="round"/>
<path d="M35.2986 50.1188C35.2986 55.3609 37.381 60.3883 41.0877 64.095C44.7944 67.8017 49.8218 69.8842 55.0639 69.8842C60.306 69.8842 65.3334 67.8017 69.0401 64.095C72.7469 60.3883 74.8293 55.3609 74.8293 50.1188C74.8293 44.8767 72.7469 39.8493 69.0401 36.1426C65.3334 32.4359 60.306 30.3535 55.0639 30.3535C49.8218 30.3535 44.7944 32.4359 41.0877 36.1426C37.381 39.8493 35.2986 44.8767 35.2986 50.1188Z" fill="#CA91CC"/>
<path d="M35.2986 50.1188C35.2986 55.3609 37.381 60.3883 41.0877 64.095C44.7944 67.8017 49.8218 69.8842 55.0639 69.8842C60.306 69.8842 65.3334 67.8017 69.0401 64.095C72.7469 60.3883 74.8293 55.3609 74.8293 50.1188C74.8293 44.8767 72.7469 39.8493 69.0401 36.1426C65.3334 32.4359 60.306 30.3535 55.0639 30.3535C49.8218 30.3535 44.7944 32.4359 41.0877 36.1426C37.381 39.8493 35.2986 44.8767 35.2986 50.1188Z" stroke="#B361B5" stroke-linecap="round" stroke-linejoin="round"/>
<path d="M45.9728 36.343C45.684 36.343 45.407 36.4577 45.2027 36.6619C44.9985 36.8661 44.8838 37.1431 44.8838 37.432V67.033C47.5634 68.6558 50.5917 69.6157 53.7169 69.8328C56.8421 70.0499 59.974 69.5181 62.8523 68.2813V37.432C62.8523 37.1431 62.7376 36.8661 62.5333 36.6619C62.3291 36.4577 62.0521 36.343 61.7633 36.343H45.9728Z" fill="white"/>
<path d="M44.8838 39.9366H53.2691" stroke="#B361B5" stroke-linecap="round" stroke-linejoin="round"/>
<path d="M44.8838 43.5303H49.6754" stroke="#B361B5" stroke-linecap="round" stroke-linejoin="round"/>
<path d="M45.9728 36.343C45.684 36.343 45.407 36.4577 45.2027 36.6619C44.9985 36.8661 44.8838 37.1431 44.8838 37.432V67.033C47.5634 68.6558 50.5917 69.6157 53.7169 69.8328C56.8421 70.0499 59.974 69.518 62.8523 68.2813V37.432C62.8523 37.1431 62.7376 36.8661 62.5333 36.6619C62.3291 36.4577 62.0521 36.343 61.7633 36.343H45.9728Z" stroke="#B361B5" stroke-linecap="round" stroke-linejoin="round"/>
<path d="M64.0501 65.0926C64.0501 64.7748 64.1763 64.4702 64.4009 64.2455C64.6256 64.0209 64.9303 63.8946 65.248 63.8946H67.6438C67.8433 63.8976 68.0389 63.9512 68.212 64.0504C68.3852 64.1497 68.5303 64.2913 68.6338 64.4619C70.5963 62.6125 72.1599 60.3811 73.2284 57.9052H56.8627V69.7931C59.3701 69.5661 61.8104 68.8582 64.0501 67.7081V65.0926Z" fill="white"/>
<path d="M74.2105 54.95L67.4874 51.287C67.1683 51.1137 66.811 51.0229 66.4479 51.0229C66.0848 51.0229 65.7274 51.1137 65.4084 51.287L55.45 56.7072V57.9051H73.2313C73.6356 56.9476 73.963 55.9595 74.2105 54.95Z" fill="#CA91CC"/>
<path d="M74.2105 54.95L67.4874 51.287C67.1683 51.1137 66.811 51.0229 66.4479 51.0229C66.0848 51.0229 65.7274 51.1137 65.4084 51.287L55.45 56.7072V57.9051H73.2313C73.6356 56.9476 73.963 55.9595 74.2105 54.95Z" stroke="#B361B5" stroke-linecap="round" stroke-linejoin="round"/>
<path d="M67.6438 63.8947H65.251C64.9333 63.8947 64.6286 64.0209 64.404 64.2455C64.1793 64.4702 64.0531 64.7749 64.0531 65.0926V67.7081C65.7285 66.8496 67.273 65.7565 68.6398 64.4619C68.5358 64.2904 68.3897 64.1483 68.2154 64.049C68.0411 63.9497 67.8444 63.8966 67.6438 63.8947Z" fill="#CA91CC" stroke="#B361B5" stroke-linecap="round" stroke-linejoin="round"/>
<path d="M64.0501 65.0926C64.0501 64.7748 64.1763 64.4702 64.4009 64.2455C64.6256 64.0209 64.9303 63.8946 65.248 63.8946H67.6438C67.8433 63.8976 68.0389 63.9512 68.212 64.0504C68.3852 64.1497 68.5303 64.2913 68.6338 64.4619C70.5963 62.6125 72.1599 60.3811 73.2284 57.9052H56.8627V69.7931C59.3701 69.5661 61.8104 68.8582 64.0501 67.7081V65.0926Z" stroke="#B361B5" stroke-linecap="round" stroke-linejoin="round"/>
<path d="M39.9833 48.322C39.6945 48.322 39.4175 48.4367 39.2132 48.6409C39.009 48.8451 38.8943 49.1221 38.8943 49.411V61.4632C40.5409 63.8137 42.6804 65.7767 45.1636 67.2154C47.6468 68.6541 50.4139 69.5337 53.2721 69.7931V49.411C53.2721 49.1221 53.1573 48.8451 52.9531 48.6409C52.7489 48.4367 52.4719 48.322 52.1831 48.322H39.9833Z" fill="white"/>
<path d="M38.8943 51.9156H53.2691" stroke="#B361B5" stroke-linecap="round" stroke-linejoin="round"/>
<path d="M38.8943 55.5093H53.2691" stroke="#B361B5" stroke-linecap="round" stroke-linejoin="round"/>
<path d="M38.8943 59.1031H53.2691" stroke="#B361B5" stroke-linecap="round" stroke-linejoin="round"/>
<path d="M42.4879 50.7177V51.9156" stroke="#B361B5" stroke-linecap="round" stroke-linejoin="round"/>
<path d="M46.0817 50.7177V51.9156" stroke="#B361B5" stroke-linecap="round" stroke-linejoin="round"/>
<path d="M49.6753 50.7177V51.9156" stroke="#B361B5" stroke-linecap="round" stroke-linejoin="round"/>
<path d="M42.4879 54.3115V55.5094" stroke="#B361B5" stroke-linecap="round" stroke-linejoin="round"/>
<path d="M46.0817 54.3115V55.5094" stroke="#B361B5" stroke-linecap="round" stroke-linejoin="round"/>
<path d="M49.6753 54.3115V55.5094" stroke="#B361B5" stroke-linecap="round" stroke-linejoin="round"/>
<path d="M42.4879 57.9052V59.1031" stroke="#B361B5" stroke-linecap="round" stroke-linejoin="round"/>
<path d="M46.0817 57.9052V59.1031" stroke="#B361B5" stroke-linecap="round" stroke-linejoin="round"/>
<path d="M49.6753 57.9052V59.1031" stroke="#B361B5" stroke-linecap="round" stroke-linejoin="round"/>
<path d="M42.4879 61.4988V62.6967" stroke="#B361B5" stroke-linecap="round" stroke-linejoin="round"/>
<path d="M46.0817 61.4988V62.6967" stroke="#B361B5" stroke-linecap="round" stroke-linejoin="round"/>
<path d="M49.6753 61.4988V62.6967" stroke="#B361B5" stroke-linecap="round" stroke-linejoin="round"/>
<path d="M46.0817 65.0926V66.2905" stroke="#B361B5" stroke-linecap="round" stroke-linejoin="round"/>
<path d="M49.6753 65.0926V66.2905" stroke="#B361B5" stroke-linecap="round" stroke-linejoin="round"/>
<path d="M49.6753 68.6862V69.1377" stroke="#B361B5" stroke-linecap="round" stroke-linejoin="round"/>
<path d="M43.7234 66.2905C46.5432 68.2767 49.8366 69.4848 53.2719 69.7931V66.2905H43.7234Z" stroke="#B361B5" stroke-linecap="round" stroke-linejoin="round"/>
<path d="M43.7234 66.2904H53.272V62.6967H39.8179C40.9531 64.064 42.2667 65.2726 43.7234 66.2904Z" stroke="#B361B5" stroke-linecap="round" stroke-linejoin="round"/>
<path d="M53.272 62.6968V49.411C53.272 49.1221 53.1573 48.8451 52.9531 48.6409C52.7489 48.4367 52.4719 48.322 52.183 48.322H39.9843C39.6954 48.322 39.4184 48.4367 39.2142 48.6409C39.01 48.8451 38.8953 49.1221 38.8953 49.411V61.4632C39.1923 61.884 39.4893 62.3008 39.8179 62.6968H53.272Z" stroke="#B361B5" stroke-linecap="round" stroke-linejoin="round"/>
<path d="M28.0032 66.3053H16.7043V60.1099L22.3543 55.3084L28.0032 60.1099V66.3053Z" fill="#CA91CC" stroke="#B361B5" stroke-linecap="round" stroke-linejoin="round"/>
<path d="M28.0854 60.9108C27.8009 60.9118 27.5255 60.8106 27.3093 60.6257L22.4355 56.4835L17.5627 60.6257C17.3196 60.8214 17.0097 60.9144 16.6989 60.885C16.3882 60.8557 16.1012 60.7062 15.8991 60.4684C15.6969 60.2306 15.5955 59.9233 15.6165 59.6119C15.6375 59.3005 15.7791 59.0096 16.0114 58.8011L21.6603 53.9986C21.8766 53.814 22.1516 53.7126 22.436 53.7126C22.7203 53.7126 22.9954 53.814 23.2117 53.9986L28.8606 58.8011C29.047 58.96 29.1803 59.1721 29.2424 59.409C29.3045 59.6459 29.2925 59.8962 29.2081 60.126C29.1236 60.3559 28.9707 60.5544 28.77 60.6947C28.5693 60.835 28.3303 60.9104 28.0854 60.9108Z" fill="#CA91CC" stroke="#B361B5" stroke-linejoin="round"/>
<path d="M23.8918 66.2905H20.899V63.5947C20.9091 63.2042 21.0713 62.8331 21.351 62.5605C21.6307 62.2879 22.0058 62.1353 22.3964 62.1353C22.787 62.1353 23.1622 62.2879 23.4419 62.5605C23.7216 62.8331 23.8838 63.2042 23.8938 63.5947L23.8918 66.2905Z" fill="#CA91CC" stroke="#B361B5" stroke-linejoin="round"/>
</svg>
