<svg width="101" height="100" viewBox="0 0 101 100" fill="none" xmlns="http://www.w3.org/2000/svg">
<path d="M90.1 49.9941C90.1008 44.0839 88.7786 38.2486 86.2305 32.9159C83.6824 27.5833 79.973 22.8886 75.3743 19.1762C70.7757 15.4638 65.4043 12.8279 59.6543 11.4616C53.9042 10.0954 47.9212 10.0336 42.1442 11.2806C36.3671 12.5277 30.9424 15.0521 26.268 18.6686C21.5935 22.2852 17.7879 26.9021 15.1301 32.181C12.4723 37.4598 11.0298 43.2666 10.9084 49.1755C10.787 55.0844 11.9897 60.9455 14.4284 66.3291H86.5717C88.901 61.1986 90.1042 55.6286 90.1 49.9941Z" fill="#F1DDF1"/>
<path d="M14.4283 66.3291C17.5693 73.2629 22.6422 79.1446 29.0396 83.2698C35.437 87.3951 42.8879 89.589 50.5 89.589C58.1121 89.589 65.5629 87.3951 71.9604 83.2698C78.3578 79.1446 83.4307 73.2629 86.5716 66.3291H14.4283Z" fill="white"/>
<path d="M11.89 66.3291H89.11" stroke="#B361B5" stroke-linecap="round" stroke-linejoin="round"/>
<path d="M7.43506 66.3291H9.91006" stroke="#B361B5" stroke-linecap="round" stroke-linejoin="round"/>
<path d="M91.09 66.3291H93.565" stroke="#B361B5" stroke-linecap="round" stroke-linejoin="round"/>
<path d="M70.4653 68.0002H55.4401V24.4293L69.0803 31.2494C69.4965 31.4571 69.8467 31.7766 70.0915 32.1721C70.3363 32.5677 70.4661 33.0236 70.4663 33.4888L70.4653 68.0002Z" fill="#CA91CC"/>
<path d="M59.8229 54.1026H65.8332V60.1128H59.8229V54.1026Z" fill="white"/>
<path d="M59.8229 54.1026H65.8332V60.1128H59.8229V54.1026Z" stroke="#B361B5" stroke-linecap="round" stroke-linejoin="round"/>
<path d="M55.4401 68.0002H32.9027V16.9162C32.9027 16.5176 33.061 16.1354 33.3429 15.8535C33.6247 15.5717 34.007 15.4134 34.4055 15.4134H53.9372C54.1346 15.4132 54.3301 15.452 54.5125 15.5275C54.6949 15.603 54.8606 15.7137 55.0002 15.8532C55.1398 15.9928 55.2505 16.1585 55.3259 16.3409C55.4014 16.5233 55.4402 16.7188 55.4401 16.9162V68.0002Z" fill="#CA91CC"/>
<path d="M35.9084 40.9563H41.9187V46.9666H35.9084V40.9563Z" fill="white"/>
<path d="M35.9084 40.9563H41.9187V46.9666H35.9084V40.9563Z" stroke="#B361B5" stroke-linecap="round" stroke-linejoin="round"/>
<path d="M46.4252 40.9563H52.4355V46.9666H46.4252V40.9563Z" fill="white"/>
<path d="M46.4252 40.9563H52.4355V46.9666H46.4252V40.9563Z" stroke="#B361B5" stroke-linecap="round" stroke-linejoin="round"/>
<path d="M35.9084 30.4069H41.9187V36.4172H35.9084V30.4069Z" fill="white"/>
<path d="M35.9084 30.4069H41.9187V36.4172H35.9084V30.4069Z" stroke="#B361B5" stroke-linecap="round" stroke-linejoin="round"/>
<path d="M46.4252 30.4069H52.4355V36.4172H46.4252V30.4069Z" fill="white"/>
<path d="M46.4252 30.4069H52.4355V36.4172H46.4252V30.4069Z" stroke="#B361B5" stroke-linecap="round" stroke-linejoin="round"/>
<path d="M35.9084 19.9218H41.9187V25.9321H35.9084V19.9218Z" fill="#B361B5"/>
<path d="M35.9084 19.9218H41.9187V25.9321H35.9084V19.9218Z" fill="white" stroke="#B361B5" stroke-linecap="round" stroke-linejoin="round"/>
<path d="M46.4252 19.9218H52.4355V25.9321H46.4252V19.9218Z" fill="white"/>
<path d="M46.4252 19.9218H52.4355V25.9321H46.4252V19.9218Z" stroke="#B361B5" stroke-linecap="round" stroke-linejoin="round"/>
<path d="M35.9084 51.4741H41.9187V57.4844H35.9084V51.4741Z" fill="#B361B5"/>
<path d="M35.9084 51.4741H41.9187V57.4844H35.9084V51.4741Z" fill="white" stroke="#B361B5" stroke-linecap="round" stroke-linejoin="round"/>
<path d="M46.4252 51.4741H52.4355V57.4844H46.4252V51.4741Z" fill="white"/>
<path d="M46.4252 51.4741H52.4355V57.4844H46.4252V51.4741Z" stroke="#B361B5" stroke-linecap="round" stroke-linejoin="round"/>
<path d="M70.4653 68.0002H55.4401V24.4293L69.0803 31.2494C69.4965 31.4571 69.8467 31.7766 70.0915 32.1721C70.3363 32.5677 70.4661 33.0236 70.4663 33.4888L70.4653 68.0002Z" stroke="#B361B5" stroke-linecap="round" stroke-linejoin="round"/>
<path d="M67.7102 30.5643V23.6779" stroke="#B361B5" stroke-linecap="round" stroke-linejoin="round"/>
<path d="M55.4401 68.0002H32.9027V16.9162C32.9027 16.5176 33.061 16.1354 33.3429 15.8535C33.6247 15.5717 34.007 15.4134 34.4055 15.4134H53.9372C54.1346 15.4132 54.3301 15.452 54.5125 15.5275C54.6949 15.603 54.8606 15.7137 55.0002 15.8532C55.1398 15.9928 55.2505 16.1585 55.3259 16.3409C55.4014 16.5233 55.4402 16.7188 55.4401 16.9162V68.0002Z" stroke="#B361B5" stroke-linecap="round" stroke-linejoin="round"/>
<path d="M35.7827 15.4143V9.40405" stroke="#B361B5" stroke-linecap="round" stroke-linejoin="round"/>
<path d="M38.9131 15.4144V11.6583" stroke="#B361B5" stroke-linecap="round" stroke-linejoin="round"/>
<path d="M37.4102 68.0002H23.8888V31.6266C23.8888 31.3115 24.014 31.0093 24.2368 30.7865C24.4595 30.5637 24.7617 30.4386 25.0768 30.4386H36.2222C36.5373 30.4386 36.8395 30.5637 37.0623 30.7865C37.2851 31.0093 37.4102 31.3115 37.4102 31.6266V68.0002Z" fill="#CA91CC" stroke="#B361B5" stroke-linecap="round" stroke-linejoin="round"/>
<path d="M23.8888 34.8213H37.4112V39.2031H23.8888V34.8213Z" fill="#B361B5"/>
<path d="M23.8888 34.8213H37.4112V39.2031H23.8888V34.8213Z" fill="white" stroke="#B361B5" stroke-linecap="round" stroke-linejoin="round"/>
<path d="M23.8888 43.961H37.4112V48.4685H23.8888V43.961Z" fill="#B361B5"/>
<path d="M23.8888 43.961H37.4112V48.4685H23.8888V43.961Z" fill="white" stroke="#B361B5" stroke-linecap="round" stroke-linejoin="round"/>
<path d="M23.8888 52.9759H37.4112V57.4834H23.8888V52.9759Z" fill="white"/>
<path d="M23.8888 52.9759H37.4112V57.4834H23.8888V52.9759Z" stroke="#B361B5" stroke-linecap="round" stroke-linejoin="round"/>
<path d="M40.7386 70.1732H41.99" stroke="#B361B5" stroke-linecap="round" stroke-linejoin="round"/>
<path d="M59.8229 33.569H65.8332V39.5793H59.8229V33.569Z" fill="#B361B5"/>
<path d="M59.8229 33.569H65.8332V39.5793H59.8229V33.569Z" fill="white" stroke="#B361B5" stroke-linecap="round" stroke-linejoin="round"/>
<path d="M59.8229 43.8363H65.8332V49.8465H59.8229V43.8363Z" fill="white"/>
<path d="M59.8229 43.8363H65.8332V49.8465H59.8229V43.8363Z" stroke="#B361B5" stroke-linecap="round" stroke-linejoin="round"/>
<path d="M49.816 55.148C49.3477 50.4702 48.727 40.4356 52.6325 40.4356C53.0026 40.4356 53.3691 40.5085 53.711 40.6502C54.0529 40.7918 54.3635 40.9995 54.6252 41.2612C54.8868 41.5229 55.0943 41.8337 55.2359 42.1756C55.3774 42.5176 55.4502 42.884 55.4501 43.2541V44.1936C55.4501 51.0791 58.4369 58.2784 64.2145 58.2784V72.6779H63.476C59.8655 72.6779 58.1557 75.1816 51.689 75.1816H40.7387C40.4056 75.1883 40.0746 75.1284 39.765 75.0055C39.4553 74.8826 39.1733 74.6992 38.9355 74.466C38.6976 74.2328 38.5086 73.9545 38.3796 73.6474C38.2506 73.3403 38.1842 73.0105 38.1842 72.6774C38.1842 72.3443 38.2506 72.0145 38.3796 71.7074C38.5086 71.4003 38.6976 71.122 38.9355 70.8888C39.1733 70.6556 39.4553 70.4722 39.765 70.3494C40.0746 70.2265 40.4056 70.1666 40.7387 70.1732H39.4863C38.8308 70.1602 38.2065 69.8906 37.7475 69.4224C37.2885 68.9542 37.0314 68.3247 37.0314 67.669C37.0314 67.0134 37.2885 66.3838 37.7475 65.9156C38.2065 65.4474 38.8308 65.1778 39.4863 65.1648H38.234C37.5784 65.1518 36.9541 64.8822 36.4951 64.414C36.0361 63.9458 35.779 63.3163 35.779 62.6606C35.779 62.0049 36.0361 61.3754 36.4951 60.9072C36.9541 60.439 37.5784 60.1694 38.234 60.1564H36.9826C36.6538 60.1564 36.3282 60.0916 36.0245 59.9658C35.7207 59.84 35.4447 59.6556 35.2122 59.4231C34.9797 59.1906 34.7953 58.9146 34.6695 58.6108C34.5436 58.3071 34.4789 57.9815 34.4789 57.6527C34.4789 57.3239 34.5436 56.9983 34.6695 56.6946C34.7953 56.3908 34.9797 56.1148 35.2122 55.8823C35.4447 55.6498 35.7207 55.4654 36.0245 55.3396C36.3282 55.2137 36.6538 55.149 36.9826 55.149L49.816 55.148Z" fill="white"/>
<path d="M52.3196 55.149H49.8159" stroke="#B361B5" stroke-linecap="round" stroke-linejoin="round"/>
<path d="M39.4862 65.1648H40.7386" stroke="#B361B5" stroke-linecap="round" stroke-linejoin="round"/>
<path d="M38.2339 60.1564H39.4862" stroke="#B361B5" stroke-linecap="round" stroke-linejoin="round"/>
<path d="M67.9706 55.7747H76.7351V75.1816H67.9706V55.7747Z" fill="#009FD9"/>
<path d="M67.9706 55.7747H76.7351V75.1816H67.9706V55.7747Z" fill="#CA91CC" stroke="#B361B5" stroke-linecap="round" stroke-linejoin="round"/>
<path d="M67.9705 73.9293H65.2045C64.9419 73.9293 64.6901 73.825 64.5044 73.6393C64.3188 73.4537 64.2145 73.2018 64.2145 72.9393V58.019C64.2145 57.7564 64.3188 57.5046 64.5044 57.319C64.6901 57.1333 64.9419 57.029 65.2045 57.029H67.9705V73.9293Z" fill="white" stroke="#B361B5" stroke-linecap="round" stroke-linejoin="round"/>
<path d="M49.816 55.148C49.3477 50.4702 48.727 40.4356 52.6325 40.4356C53.0026 40.4356 53.3691 40.5085 53.711 40.6502C54.0529 40.7918 54.3635 40.9995 54.6252 41.2612C54.8868 41.5229 55.0943 41.8337 55.2359 42.1756C55.3774 42.5176 55.4502 42.884 55.4501 43.2541V44.1936C55.4501 51.0791 58.4369 58.2784 64.2145 58.2784V72.6779H63.476C59.8655 72.6779 58.1557 75.1816 51.689 75.1816H40.7387C40.4056 75.1883 40.0746 75.1284 39.765 75.0055C39.4553 74.8826 39.1733 74.6992 38.9355 74.466C38.6976 74.2328 38.5086 73.9545 38.3796 73.6474C38.2506 73.3403 38.1842 73.0105 38.1842 72.6774C38.1842 72.3443 38.2506 72.0146 38.3796 71.7074C38.5086 71.4003 38.6976 71.122 38.9355 70.8888C39.1733 70.6556 39.4553 70.4722 39.765 70.3494C40.0746 70.2265 40.4056 70.1666 40.7387 70.1732H39.4863C38.8308 70.1602 38.2065 69.8906 37.7475 69.4224C37.2885 68.9542 37.0314 68.3247 37.0314 67.669C37.0314 67.0134 37.2885 66.3838 37.7475 65.9156C38.2065 65.4474 38.8308 65.1778 39.4863 65.1648H38.234C37.5784 65.1518 36.9541 64.8822 36.4951 64.414C36.0361 63.9458 35.779 63.3163 35.779 62.6606C35.779 62.0049 36.0361 61.3754 36.4951 60.9072C36.9541 60.439 37.5784 60.1694 38.234 60.1564H36.9826C36.6538 60.1564 36.3282 60.0916 36.0245 59.9658C35.7207 59.84 35.4447 59.6556 35.2122 59.4231C34.9797 59.1906 34.7953 58.9146 34.6695 58.6108C34.5436 58.3071 34.4789 57.9815 34.4789 57.6527C34.4789 57.3239 34.5436 56.9983 34.6695 56.6946C34.7953 56.3908 34.9797 56.1148 35.2122 55.8823C35.4447 55.6498 35.7207 55.4654 36.0245 55.3396C36.3282 55.2137 36.6538 55.149 36.9826 55.149L49.816 55.148Z" stroke="#B361B5" stroke-linecap="round" stroke-linejoin="round"/>
</svg>
